<?xml version='1.0' encoding='UTF-8'?>
<svg width="14.8mm" height="14.8mm" version="1.1" viewBox="0 0 14.8 14.8" xmlns="http://www.w3.org/2000/svg"><path d="M 6.8 9.2 L 6.8 9.6 L 7.2 9.6 L 7.2 9.2 z M 11.2 9.2 L 11.2 9.6 L 11.6 9.6 L 11.6 9.2 z M 8 7.6 L 8 8.0 L 8.4 8.0 L 8.4 7.6 z M 6.8 12.8 L 6.8 13.2 L 7.2 13.2 L 7.2 12.8 z M 11.2 12.8 L 11.2 13.2 L 11.6 13.2 L 11.6 12.8 z M 8.4 0.8 L 8.4 1.2 L 8.8 1.2 L 8.8 0.8 z M 12.8 0.8 L 12.8 1.2 L 13.2 1.2 L 13.2 0.8 z M 11.6 6 L 11.6 6.4 L 12.0 6.4 L 12.0 6 z M 12.8 4.4 L 12.8 4.8 L 13.2 4.8 L 13.2 4.4 z M 0.8 2.8 L 0.8 3.2 L 1.2 3.2 L 1.2 2.8 z M 5.2 2.8 L 5.2 3.2 L 5.6 3.2 L 5.6 2.8 z M 12.8 8 L 12.8 8.4 L 13.2 8.4 L 13.2 8 z M 0.8 6.4 L 0.8 6.8 L 1.2 6.8 L 1.2 6.4 z M 0.8 10 L 0.8 10.4 L 1.2 10.4 L 1.2 10 z M 4.8 11.6 L 4.8 12.0 L 5.2 12.0 L 5.2 11.6 z M 2.4 1.6 L 2.4 2.0 L 2.8 2.0 L 2.8 1.6 z M 1.6 13.6 L 1.6 14.0 L 2.0 14.0 L 2.0 13.6 z M 2 3.2 L 2 3.6 L 2.4 3.6 L 2.4 3.2 z M 2 6.8 L 2 7.2 L 2.4 7.2 L 2.4 6.8 z M 9.6 12 L 9.6 12.4 L 10.0 12.4 L 10.0 12 z M 2 10.4 L 2 10.8 L 2.4 10.8 L 2.4 10.4 z M 6.4 10.4 L 6.4 10.8 L 6.8 10.8 L 6.8 10.4 z M 8 2 L 8 2.4 L 8.4 2.4 L 8.4 2 z M 6.8 7.2 L 6.8 7.6 L 7.2 7.6 L 7.2 7.2 z M 11.6 4 L 11.6 4.4 L 12.0 4.4 L 12.0 4 z M 12.4 11.6 L 12.4 12.0 L 12.8 12.0 L 12.8 11.6 z M 4 2.4 L 4 2.8 L 4.4 2.8 L 4.4 2.4 z M 12.8 2.4 L 12.8 2.8 L 13.2 2.8 L 13.2 2.4 z M 0.8 0.8 L 0.8 1.2 L 1.2 1.2 L 1.2 0.8 z M 5.2 4.4 L 5.2 4.8 L 5.6 4.8 L 5.6 4.4 z M 10.8 5.2 L 10.8 5.6 L 11.2 5.6 L 11.2 5.2 z M 4.8 9.6 L 4.8 10.0 L 5.2 10.0 L 5.2 9.6 z M 10.8 8.8 L 10.8 9.2 L 11.2 9.2 L 11.2 8.8 z M 10.8 12.4 L 10.8 12.8 L 11.2 12.8 L 11.2 12.4 z M 9.6 6.4 L 9.6 6.8 L 10.0 6.8 L 10.0 6.4 z M 6.4 4.8 L 6.4 5.2 L 6.8 5.2 L 6.8 4.8 z M 9.6 10 L 9.6 10.4 L 10.0 10.4 L 10.0 10 z M 9.6 13.6 L 9.6 14.0 L 10.0 14.0 L 10.0 13.6 z M 2 12 L 2 12.4 L 2.4 12.4 L 2.4 12 z M 11.2 1.6 L 11.2 2.0 L 11.6 2.0 L 11.6 1.6 z M 6.8 5.2 L 6.8 5.6 L 7.2 5.6 L 7.2 5.2 z M 3.6 7.2 L 3.6 7.6 L 4.0 7.6 L 4.0 7.2 z M 3.2 12.4 L 3.2 12.8 L 3.6 12.8 L 3.6 12.4 z M 9.2 11.6 L 9.2 12.0 L 9.6 12.0 L 9.6 11.6 z M 5.2 2.4 L 5.2 2.8 L 5.6 2.8 L 5.6 2.4 z M 4.8 7.6 L 4.8 8.0 L 5.2 8.0 L 5.2 7.6 z M 1.6 6 L 1.6 6.4 L 2.0 6.4 L 2.0 6 z M 10.8 6.8 L 10.8 7.2 L 11.2 7.2 L 11.2 6.8 z M 4.8 11.2 L 4.8 11.6 L 5.2 11.6 L 5.2 11.2 z M 1.6 9.6 L 1.6 10.0 L 2.0 10.0 L 2.0 9.6 z M 10.8 10.4 L 10.8 10.8 L 11.2 10.8 L 11.2 10.4 z M 6.4 2.8 L 6.4 3.2 L 6.8 3.2 L 6.8 2.8 z M 9.6 8 L 9.6 8.4 L 10.0 8.4 L 10.0 8 z M 2 6.4 L 2 6.8 L 2.4 6.8 L 2.4 6.4 z M 6.4 6.4 L 6.4 6.8 L 6.8 6.8 L 6.8 6.4 z M 9.6 11.6 L 9.6 12.0 L 10.0 12.0 L 10.0 11.6 z M 2 10 L 2 10.4 L 2.4 10.4 L 2.4 10 z M 11.2 3.2 L 11.2 3.6 L 11.6 3.6 L 11.6 3.2 z M 7.6 10.8 L 7.6 11.2 L 8.0 11.2 L 8.0 10.8 z M 12 10.8 L 12 11.2 L 12.4 11.2 L 12.4 10.8 z M 8 5.2 L 8 5.6 L 8.4 5.6 L 8.4 5.2 z M 4.4 12.8 L 4.4 13.2 L 4.8 13.2 L 4.8 12.8 z M 12.4 4 L 12.4 4.4 L 12.8 4.4 L 12.8 4 z M 12.4 7.6 L 12.4 8.0 L 12.8 8.0 L 12.8 7.6 z M 3.2 10.4 L 3.2 10.8 L 3.6 10.8 L 3.6 10.4 z M 9.2 13.2 L 9.2 13.6 L 9.6 13.6 L 9.6 13.2 z M 4.8 2 L 4.8 2.4 L 5.2 2.4 L 5.2 2 z M 4.8 5.6 L 4.8 6.0 L 5.2 6.0 L 5.2 5.6 z M 1.6 4 L 1.6 4.4 L 2.0 4.4 L 2.0 4 z M 4.8 9.2 L 4.8 9.6 L 5.2 9.6 L 5.2 9.2 z M 10.8 8.4 L 10.8 8.8 L 11.2 8.8 L 11.2 8.4 z M 4.8 12.8 L 4.8 13.2 L 5.2 13.2 L 5.2 12.8 z M 1.6 11.2 L 1.6 11.6 L 2.0 11.6 L 2.0 11.2 z M 10.8 12 L 10.8 12.4 L 11.2 12.4 L 11.2 12 z M 2 0.8 L 2 1.2 L 2.4 1.2 L 2.4 0.8 z M 6 13.6 L 6 14.0 L 6.4 14.0 L 6.4 13.6 z M 10.4 13.6 L 10.4 14.0 L 10.8 14.0 L 10.8 13.6 z M 2 4.4 L 2 4.8 L 2.4 4.8 L 2.4 4.4 z M 11.2 1.2 L 11.2 1.6 L 11.6 1.6 L 11.6 1.2 z M 12 8.8 L 12 9.2 L 12.4 9.2 L 12.4 8.8 z M 12 12.4 L 12 12.8 L 12.4 12.8 L 12.4 12.4 z M 12.4 2 L 12.4 2.4 L 12.8 2.4 L 12.8 2 z M 3.2 4.8 L 3.2 5.2 L 3.6 5.2 L 3.6 4.8 z M 12.4 5.6 L 12.4 6.0 L 12.8 6.0 L 12.8 5.6 z M 12.4 9.2 L 12.4 9.6 L 12.8 9.6 L 12.8 9.2 z M 3.2 12 L 3.2 12.4 L 3.6 12.4 L 3.6 12 z M 12.4 12.8 L 12.4 13.2 L 12.8 13.2 L 12.8 12.8 z M 9.2 11.2 L 9.2 11.6 L 9.6 11.6 L 9.6 11.2 z M 1.6 2 L 1.6 2.4 L 2.0 2.4 L 2.0 2 z M 4.8 7.2 L 4.8 7.6 L 5.2 7.6 L 5.2 7.2 z M 10.8 6.4 L 10.8 6.8 L 11.2 6.8 L 11.2 6.4 z M 1.6 12.8 L 1.6 13.2 L 2.0 13.2 L 2.0 12.8 z M 6 11.6 L 6 12.0 L 6.4 12.0 L 6.4 11.6 z M 10.4 11.6 L 10.4 12.0 L 10.8 12.0 L 10.8 11.6 z M 2 2.4 L 2 2.8 L 2.4 2.8 L 2.4 2.4 z M 6.4 2.4 L 6.4 2.8 L 6.8 2.8 L 6.8 2.4 z M 7.2 13.6 L 7.2 14.0 L 7.6 14.0 L 7.6 13.6 z M 12 3.2 L 12 3.6 L 12.4 3.6 L 12.4 3.2 z M 4.4 5.2 L 4.4 5.6 L 4.8 5.6 L 4.8 5.2 z M 2.8 9.6 L 2.8 10.0 L 3.2 10.0 L 3.2 9.6 z M 7.6 10.4 L 7.6 10.8 L 8.0 10.8 L 8.0 10.4 z M 12 10.4 L 12 10.8 L 12.4 10.8 L 12.4 10.4 z M 4.4 8.8 L 4.4 9.2 L 4.8 9.2 L 4.8 8.8 z M 3.2 2.8 L 3.2 3.2 L 3.6 3.2 L 3.6 2.8 z M 3.2 6.4 L 3.2 6.8 L 3.6 6.8 L 3.6 6.4 z M 9.2 9.2 L 9.2 9.6 L 9.6 9.6 L 9.6 9.2 z M 3.2 13.6 L 3.2 14.0 L 3.6 14.0 L 3.6 13.6 z M 4.8 1.6 L 4.8 2.0 L 5.2 2.0 L 5.2 1.6 z M 1.6 7.2 L 1.6 7.6 L 2.0 7.6 L 2.0 7.2 z M 13.6 7.6 L 13.6 8.0 L 14.0 8.0 L 14.0 7.6 z M 10.4 9.6 L 10.4 10.0 L 10.8 10.0 L 10.8 9.6 z M 7.2 8 L 7.2 8.4 L 7.6 8.4 L 7.6 8 z M 2.8 4 L 2.8 4.4 L 3.2 4.4 L 3.2 4 z M 7.6 4.8 L 7.6 5.2 L 8.0 5.2 L 8.0 4.8 z M 12 4.8 L 12 5.2 L 12.4 5.2 L 12.4 4.8 z M 12 8.4 L 12 8.8 L 12.4 8.8 L 12.4 8.4 z M 4.4 6.8 L 4.4 7.2 L 4.8 7.2 L 4.8 6.8 z M 2.8 11.2 L 2.8 11.6 L 3.2 11.6 L 3.2 11.2 z M 12 12 L 12 12.4 L 12.4 12.4 L 12.4 12 z M 3.2 0.8 L 3.2 1.2 L 3.6 1.2 L 3.6 0.8 z M 12.4 1.6 L 12.4 2.0 L 12.8 2.0 L 12.8 1.6 z M 12.4 5.2 L 12.4 5.6 L 12.8 5.6 L 12.8 5.2 z M 9.2 3.6 L 9.2 4.0 L 9.6 4.0 L 9.6 3.6 z M 3.2 8 L 3.2 8.4 L 3.6 8.4 L 3.6 8 z M 8.8 12.4 L 8.8 12.8 L 9.2 12.8 L 9.2 12.4 z M 13.2 12.4 L 13.2 12.8 L 13.6 12.8 L 13.6 12.4 z M 4.8 3.2 L 4.8 3.6 L 5.2 3.6 L 5.2 3.2 z M 5.6 10.8 L 5.6 11.2 L 6.0 11.2 L 6.0 10.8 z M 10 10.8 L 10 11.2 L 10.4 11.2 L 10.4 10.8 z M 1.6 1.6 L 1.6 2.0 L 2.0 2.0 L 2.0 1.6 z M 13.6 2 L 13.6 2.4 L 14.0 2.4 L 14.0 2 z M 1.6 5.2 L 1.6 5.6 L 2.0 5.6 L 2.0 5.2 z M 13.6 5.6 L 13.6 6.0 L 14.0 6.0 L 14.0 5.6 z M 2.4 12.8 L 2.4 13.2 L 2.8 13.2 L 2.8 12.8 z M 6 4 L 6 4.4 L 6.4 4.4 L 6.4 4 z M 13.6 9.2 L 13.6 9.6 L 14.0 9.6 L 14.0 9.2 z M 1.2 6.8 L 1.2 7.2 L 1.6 7.2 L 1.6 6.8 z M 6 7.6 L 6 8.0 L 6.4 8.0 L 6.4 7.6 z M 10.4 11.2 L 10.4 11.6 L 10.8 11.6 L 10.8 11.2 z M 4.4 1.2 L 4.4 1.6 L 4.8 1.6 L 4.8 1.2 z M 7.6 6.4 L 7.6 6.8 L 8.0 6.8 L 8.0 6.4 z M 12 6.4 L 12 6.8 L 12.4 6.8 L 12.4 6.4 z M 4.4 4.8 L 4.4 5.2 L 4.8 5.2 L 4.8 4.8 z M 2.8 9.2 L 2.8 9.6 L 3.2 9.6 L 3.2 9.2 z M 12 10 L 12 10.4 L 12.4 10.4 L 12.4 10 z M 4.4 8.4 L 4.4 8.8 L 4.8 8.8 L 4.8 8.4 z M 4.4 12 L 4.4 12.4 L 4.8 12.4 L 4.8 12 z M 3.2 2.4 L 3.2 2.8 L 3.6 2.8 L 3.6 2.4 z M 12.4 3.2 L 12.4 3.6 L 12.8 3.6 L 12.8 3.2 z M 9.2 1.6 L 9.2 2.0 L 9.6 2.0 L 9.6 1.6 z M 4 13.6 L 4 14.0 L 4.4 14.0 L 4.4 13.6 z M 5.6 8.8 L 5.6 9.2 L 6.0 9.2 L 6.0 8.8 z M 5.6 12.4 L 5.6 12.8 L 6.0 12.8 L 6.0 12.4 z M 10 12.4 L 10 12.8 L 10.4 12.8 L 10.4 12.4 z M 10.4 2 L 10.4 2.4 L 10.8 2.4 L 10.8 2 z M 13.6 7.2 L 13.6 7.6 L 14.0 7.6 L 14.0 7.2 z M 1.2 4.8 L 1.2 5.2 L 1.6 5.2 L 1.6 4.8 z M 13.6 10.8 L 13.6 11.2 L 14.0 11.2 L 14.0 10.8 z M 6 9.2 L 6 9.6 L 6.4 9.6 L 6.4 9.2 z M 7.2 7.6 L 7.2 8.0 L 7.6 8.0 L 7.6 7.6 z M 12 0.8 L 12 1.2 L 12.4 1.2 L 12.4 0.8 z M 7.6 4.4 L 7.6 4.8 L 8.0 4.8 L 8.0 4.4 z M 4.4 2.8 L 4.4 3.2 L 4.8 3.2 L 4.8 2.8 z M 2.8 7.2 L 2.8 7.6 L 3.2 7.6 L 3.2 7.2 z M 12 8 L 12 8.4 L 12.4 8.4 L 12.4 8 z M 4 11.6 L 4 12.0 L 4.4 12.0 L 4.4 11.6 z M 12.8 11.6 L 12.8 12.0 L 13.2 12.0 L 13.2 11.6 z M 8.8 1.2 L 8.8 1.6 L 9.2 1.6 L 9.2 1.2 z M 0.8 13.6 L 0.8 14.0 L 1.2 14.0 L 1.2 13.6 z M 8.8 4.8 L 8.8 5.2 L 9.2 5.2 L 9.2 4.8 z M 13.2 4.8 L 13.2 5.2 L 13.6 5.2 L 13.6 4.8 z M 5.6 3.2 L 5.6 3.6 L 6.0 3.6 L 6.0 3.2 z M 8.8 8.4 L 8.8 8.8 L 9.2 8.8 L 9.2 8.4 z M 13.2 8.4 L 13.2 8.8 L 13.6 8.8 L 13.6 8.4 z M 10 6.8 L 10 7.2 L 10.4 7.2 L 10.4 6.8 z M 13.2 12 L 13.2 12.4 L 13.6 12.4 L 13.6 12 z M 2.4 5.2 L 2.4 5.6 L 2.8 5.6 L 2.8 5.2 z M 5.6 10.4 L 5.6 10.8 L 6.0 10.8 L 6.0 10.4 z M 13.6 1.6 L 13.6 2.0 L 14.0 2.0 L 14.0 1.6 z M 2.4 8.8 L 2.4 9.2 L 2.8 9.2 L 2.8 8.8 z M 2.4 12.4 L 2.4 12.8 L 2.8 12.8 L 2.8 12.4 z M 10.4 3.6 L 10.4 4.0 L 10.8 4.0 L 10.8 3.6 z M 13.6 8.8 L 13.6 9.2 L 14.0 9.2 L 14.0 8.8 z M 1.2 6.4 L 1.2 6.8 L 1.6 6.8 L 1.6 6.4 z M 6 7.2 L 6 7.6 L 6.4 7.6 L 6.4 7.2 z M 10.4 7.2 L 10.4 7.6 L 10.8 7.6 L 10.8 7.2 z M 7.2 5.6 L 7.2 6.0 L 7.6 6.0 L 7.6 5.6 z M 10.4 10.8 L 10.4 11.2 L 10.8 11.2 L 10.8 10.8 z M 7.2 9.2 L 7.2 9.6 L 7.6 9.6 L 7.6 9.2 z M 1.2 13.6 L 1.2 14.0 L 1.6 14.0 L 1.6 13.6 z M 7.2 12.8 L 7.2 13.2 L 7.6 13.2 L 7.6 12.8 z M 7.6 2.4 L 7.6 2.8 L 8.0 2.8 L 8.0 2.4 z M 12 2.4 L 12 2.8 L 12.4 2.8 L 12.4 2.4 z M 2.8 5.2 L 2.8 5.6 L 3.2 5.6 L 3.2 5.2 z M 11.6 7.6 L 11.6 8.0 L 12.0 8.0 L 12.0 7.6 z M 5.2 8 L 5.2 8.4 L 5.6 8.4 L 5.6 8 z M 12.8 13.2 L 12.8 13.6 L 13.2 13.6 L 13.2 13.2 z M 0.8 11.6 L 0.8 12.0 L 1.2 12.0 L 1.2 11.6 z M 13.2 6.4 L 13.2 6.8 L 13.6 6.8 L 13.6 6.4 z M 5.6 4.8 L 5.6 5.2 L 6.0 5.2 L 6.0 4.8 z M 13.2 10 L 13.2 10.4 L 13.6 10.4 L 13.6 10 z M 2.4 3.2 L 2.4 3.6 L 2.8 3.6 L 2.8 3.2 z M 5.6 8.4 L 5.6 8.8 L 6.0 8.8 L 6.0 8.4 z M 13.2 13.6 L 13.2 14.0 L 13.6 14.0 L 13.6 13.6 z M 13.6 3.2 L 13.6 3.6 L 14.0 3.6 L 14.0 3.2 z M 2.4 10.4 L 2.4 10.8 L 2.8 10.8 L 2.8 10.4 z M 1.2 0.8 L 1.2 1.2 L 1.6 1.2 L 1.6 0.8 z M 1.2 4.4 L 1.2 4.8 L 1.6 4.8 L 1.6 4.4 z M 6 5.2 L 6 5.6 L 6.4 5.6 L 6.4 5.2 z M 10.4 5.2 L 10.4 5.6 L 10.8 5.6 L 10.8 5.2 z M 7.2 3.6 L 7.2 4.0 L 7.6 4.0 L 7.6 3.6 z M 6.8 12.4 L 6.8 12.8 L 7.2 12.8 L 7.2 12.4 z M 2.8 3.2 L 2.8 3.6 L 3.2 3.6 L 3.2 3.2 z M 8.4 4 L 8.4 4.4 L 8.8 4.4 L 8.8 4 z M 12.8 4 L 12.8 4.4 L 13.2 4.4 L 13.2 4 z M 0.8 2.4 L 0.8 2.8 L 1.2 2.8 L 1.2 2.4 z M 4 7.6 L 4 8.0 L 4.4 8.0 L 4.4 7.6 z M 8.4 7.6 L 8.4 8.0 L 8.8 8.0 L 8.8 7.6 z M 12.8 7.6 L 12.8 8.0 L 13.2 8.0 L 13.2 7.6 z M 0.8 6 L 0.8 6.4 L 1.2 6.4 L 1.2 6 z M 11.6 12.8 L 11.6 13.2 L 12.0 13.2 L 12.0 12.8 z M 12.8 11.2 L 12.8 11.6 L 13.2 11.6 L 13.2 11.2 z M 0.8 9.6 L 0.8 10.0 L 1.2 10.0 L 1.2 9.6 z M 8.8 0.8 L 8.8 1.2 L 9.2 1.2 L 9.2 0.8 z M 13.2 0.8 L 13.2 1.2 L 13.6 1.2 L 13.6 0.8 z M 0.8 13.2 L 0.8 13.6 L 1.2 13.6 L 1.2 13.2 z M 8.8 4.4 L 8.8 4.8 L 9.2 4.8 L 9.2 4.4 z M 8.8 8 L 8.8 8.4 L 9.2 8.4 L 9.2 8 z M 13.2 8 L 13.2 8.4 L 13.6 8.4 L 13.6 8 z M 5.6 10 L 5.6 10.4 L 6.0 10.4 L 6.0 10 z M 10 10 L 10 10.4 L 10.4 10.4 L 10.4 10 z M 13.6 1.2 L 13.6 1.6 L 14.0 1.6 L 14.0 1.2 z M 2.4 12 L 2.4 12.4 L 2.8 12.4 L 2.8 12 z M 10.4 3.2 L 10.4 3.6 L 10.8 3.6 L 10.8 3.2 z M 7.2 1.6 L 7.2 2.0 L 7.6 2.0 L 7.6 1.6 z M 1.2 6 L 1.2 6.4 L 1.6 6.4 L 1.6 6 z M 2 13.6 L 2 14.0 L 2.4 14.0 L 2.4 13.6 z M 6.8 6.8 L 6.8 7.2 L 7.2 7.2 L 7.2 6.8 z M 11.2 6.8 L 11.2 7.2 L 11.6 7.2 L 11.6 6.8 z M 11.2 10.4 L 11.2 10.8 L 11.6 10.8 L 11.6 10.4 z M 8 8.8 L 8 9.2 L 8.4 9.2 L 8.4 8.8 z M 8 12.4 L 8 12.8 L 8.4 12.8 L 8.4 12.4 z M 4 2 L 4 2.4 L 4.4 2.4 L 4.4 2 z M 8.4 2 L 8.4 2.4 L 8.8 2.4 L 8.8 2 z M 12.8 2 L 12.8 2.4 L 13.2 2.4 L 13.2 2 z M 11.6 7.2 L 11.6 7.6 L 12.0 7.6 L 12.0 7.2 z M 8.4 5.6 L 8.4 6.0 L 8.8 6.0 L 8.8 5.6 z M 0.8 4 L 0.8 4.4 L 1.2 4.4 L 1.2 4 z M 5.2 4 L 5.2 4.4 L 5.6 4.4 L 5.6 4 z M 4 9.2 L 4 9.6 L 4.4 9.6 L 4.4 9.2 z M 8.4 9.2 L 8.4 9.6 L 8.8 9.6 L 8.8 9.2 z M 4 12.8 L 4 13.2 L 4.4 13.2 L 4.4 12.8 z M 12.8 12.8 L 12.8 13.2 L 13.2 13.2 L 13.2 12.8 z M 0.8 11.2 L 0.8 11.6 L 1.2 11.6 L 1.2 11.2 z M 5.2 11.2 L 5.2 11.6 L 5.6 11.6 L 5.6 11.2 z M 8.8 2.4 L 8.8 2.8 L 9.2 2.8 L 9.2 2.4 z M 5.6 0.8 L 5.6 1.2 L 6.0 1.2 L 6.0 0.8 z M 10 0.8 L 10 1.2 L 10.4 1.2 L 10.4 0.8 z M 13.2 6 L 13.2 6.4 L 13.6 6.4 L 13.6 6 z M 10 4.4 L 10 4.8 L 10.4 4.8 L 10.4 4.4 z M 2.4 6.4 L 2.4 6.8 L 2.8 6.8 L 2.8 6.4 z M 9.6 13.2 L 9.6 13.6 L 10.0 13.6 L 10.0 13.2 z M 6.8 1.2 L 6.8 1.6 L 7.2 1.6 L 7.2 1.2 z M 6.8 4.8 L 6.8 5.2 L 7.2 5.2 L 7.2 4.8 z M 8 3.2 L 8 3.6 L 8.4 3.6 L 8.4 3.2 z M 3.6 6.8 L 3.6 7.2 L 4.0 7.2 L 4.0 6.8 z M 11.2 12 L 11.2 12.4 L 11.6 12.4 L 11.6 12 z M 8 10.4 L 8 10.8 L 8.4 10.8 L 8.4 10.4 z M 4 3.6 L 4 4.0 L 4.4 4.0 L 4.4 3.6 z M 8.4 3.6 L 8.4 4.0 L 8.8 4.0 L 8.8 3.6 z M 0.8 2 L 0.8 2.4 L 1.2 2.4 L 1.2 2 z M 5.2 2 L 5.2 2.4 L 5.6 2.4 L 5.6 2 z M 5.2 5.6 L 5.2 6.0 L 5.6 6.0 L 5.6 5.6 z M 8.4 10.8 L 8.4 11.2 L 8.8 11.2 L 8.8 10.8 z M 12.8 10.8 L 12.8 11.2 L 13.2 11.2 L 13.2 10.8 z M 0.8 9.2 L 0.8 9.6 L 1.2 9.6 L 1.2 9.2 z M 5.2 12.8 L 5.2 13.2 L 5.6 13.2 L 5.6 12.8 z M 5.6 2.4 L 5.6 2.8 L 6.0 2.8 L 6.0 2.4 z M 10 2.4 L 10 2.8 L 10.4 2.8 L 10.4 2.4 z M 10.8 10 L 10.8 10.4 L 11.2 10.4 L 11.2 10 z M 2.4 0.8 L 2.4 1.2 L 2.8 1.2 L 2.8 0.8 z M 2.4 4.4 L 2.4 4.8 L 2.8 4.8 L 2.8 4.4 z M 9.6 11.2 L 9.6 11.6 L 10.0 11.6 L 10.0 11.2 z M 2 9.6 L 2 10.0 L 2.4 10.0 L 2.4 9.6 z M 6.4 13.2 L 6.4 13.6 L 6.8 13.6 L 6.8 13.2 z M 11.2 2.8 L 11.2 3.2 L 11.6 3.2 L 11.6 2.8 z M 8 1.2 L 8 1.6 L 8.4 1.6 L 8.4 1.2 z M 6.8 6.4 L 6.8 6.8 L 7.2 6.8 L 7.2 6.4 z M 11.2 6.4 L 11.2 6.8 L 11.6 6.8 L 11.6 6.4 z M 11.2 10 L 11.2 10.4 L 11.6 10.4 L 11.6 10 z M 6.8 13.6 L 6.8 14.0 L 7.2 14.0 L 7.2 13.6 z M 11.6 3.2 L 11.6 3.6 L 12.0 3.6 L 12.0 3.2 z M 4 1.6 L 4 2.0 L 4.4 2.0 L 4.4 1.6 z M 12.8 1.6 L 12.8 2.0 L 13.2 2.0 L 13.2 1.6 z M 4 5.2 L 4 5.6 L 4.4 5.6 L 4.4 5.2 z M 12.8 5.2 L 12.8 5.6 L 13.2 5.6 L 13.2 5.2 z M 5.2 7.2 L 5.2 7.6 L 5.6 7.6 L 5.6 7.2 z M 4.8 8.8 L 4.8 9.2 L 5.2 9.2 L 5.2 8.8 z M 10.8 8 L 10.8 8.4 L 11.2 8.4 L 11.2 8 z M 9.6 2 L 9.6 2.4 L 10.0 2.4 L 10.0 2 z M 9.6 5.6 L 9.6 6.0 L 10.0 6.0 L 10.0 5.6 z M 2 4 L 2 4.4 L 2.4 4.4 L 2.4 4 z M 6.4 4 L 6.4 4.4 L 6.8 4.4 L 6.8 4 z M 2 7.6 L 2 8.0 L 2.4 8.0 L 2.4 7.6 z M 9.6 12.8 L 9.6 13.2 L 10.0 13.2 L 10.0 12.8 z M 2 11.2 L 2 11.6 L 2.4 11.6 L 2.4 11.2 z M 11.2 0.8 L 11.2 1.2 L 11.6 1.2 L 11.6 0.8 z M 11.2 4.4 L 11.2 4.8 L 11.6 4.8 L 11.6 4.4 z M 8 2.8 L 8 3.2 L 8.4 3.2 L 8.4 2.8 z M 6.8 8 L 6.8 8.4 L 7.2 8.4 L 7.2 8 z M 11.2 8 L 11.2 8.4 L 11.6 8.4 L 11.6 8 z M 3.6 6.4 L 3.6 6.8 L 4.0 6.8 L 4.0 6.4 z M 8 6.4 L 8 6.8 L 8.4 6.8 L 8.4 6.4 z M 3.6 10 L 3.6 10.4 L 4.0 10.4 L 4.0 10 z M 12.4 8.8 L 12.4 9.2 L 12.8 9.2 L 12.8 8.8 z M 3.2 11.6 L 3.2 12.0 L 3.6 12.0 L 3.6 11.6 z M 12.8 3.2 L 12.8 3.6 L 13.2 3.6 L 13.2 3.2 z M 0.8 1.6 L 0.8 2.0 L 1.2 2.0 L 1.2 1.6 z M 5.2 1.6 L 5.2 2.0 L 5.6 2.0 L 5.6 1.6 z M 4.8 6.8 L 4.8 7.2 L 5.2 7.2 L 5.2 6.8 z M 10.8 9.6 L 10.8 10.0 L 11.2 10.0 L 11.2 9.6 z M 1.6 12.4 L 1.6 12.8 L 2.0 12.8 L 2.0 12.4 z M 10.8 13.2 L 10.8 13.6 L 11.2 13.6 L 11.2 13.2 z M 2 2 L 2 2.4 L 2.4 2.4 L 2.4 2 z M 9.6 7.2 L 9.6 7.6 L 10.0 7.6 L 10.0 7.2 z M 6.4 5.6 L 6.4 6.0 L 6.8 6.0 L 6.8 5.6 z M 2 9.2 L 2 9.6 L 2.4 9.6 L 2.4 9.2 z M 2 12.8 L 2 13.2 L 2.4 13.2 L 2.4 12.8 z M 6.4 12.8 L 6.4 13.2 L 6.8 13.2 L 6.8 12.8 z M 6.8 2.4 L 6.8 2.8 L 7.2 2.8 L 7.2 2.4 z M 11.2 2.4 L 11.2 2.8 L 11.6 2.8 L 11.6 2.4 z M 8 0.8 L 8 1.2 L 8.4 1.2 L 8.4 0.8 z M 6.8 6 L 6.8 6.4 L 7.2 6.4 L 7.2 6 z M 11.2 6 L 11.2 6.4 L 11.6 6.4 L 11.6 6 z M 7.6 13.6 L 7.6 14.0 L 8.0 14.0 L 8.0 13.6 z M 8 4.4 L 8 4.8 L 8.4 4.8 L 8.4 4.4 z M 8 8 L 8 8.4 L 8.4 8.4 L 8.4 8 z M 12.4 6.8 L 12.4 7.2 L 12.8 7.2 L 12.8 6.8 z M 9.2 5.2 L 9.2 5.6 L 9.6 5.6 L 9.6 5.2 z M 3.2 9.6 L 3.2 10.0 L 3.6 10.0 L 3.6 9.6 z M 3.2 13.2 L 3.2 13.6 L 3.6 13.6 L 3.6 13.2 z M 4.8 1.2 L 4.8 1.6 L 5.2 1.6 L 5.2 1.2 z M 4.8 4.8 L 4.8 5.2 L 5.2 5.2 L 5.2 4.8 z M 1.6 3.2 L 1.6 3.6 L 2.0 3.6 L 2.0 3.2 z M 1.6 6.8 L 1.6 7.2 L 2.0 7.2 L 2.0 6.8 z M 1.6 10.4 L 1.6 10.8 L 2.0 10.8 L 2.0 10.4 z M 9.6 1.6 L 9.6 2.0 L 10.0 2.0 L 10.0 1.6 z M 9.6 5.2 L 9.6 5.6 L 10.0 5.6 L 10.0 5.2 z M 6.4 3.6 L 6.4 4.0 L 6.8 4.0 L 6.8 3.6 z M 6.4 7.2 L 6.4 7.6 L 6.8 7.6 L 6.8 7.2 z M 7.6 11.6 L 7.6 12.0 L 8.0 12.0 L 8.0 11.6 z M 12 11.6 L 12 12.0 L 12.4 12.0 L 12.4 11.6 z M 4.4 10 L 4.4 10.4 L 4.8 10.4 L 4.8 10 z M 4.4 13.6 L 4.4 14.0 L 4.8 14.0 L 4.8 13.6 z M 3.2 4 L 3.2 4.4 L 3.6 4.4 L 3.6 4 z M 12.4 8.4 L 12.4 8.8 L 12.8 8.8 L 12.8 8.4 z M 9.2 6.8 L 9.2 7.2 L 9.6 7.2 L 9.6 6.8 z M 3.2 11.2 L 3.2 11.6 L 3.6 11.6 L 3.6 11.2 z M 12.4 12 L 12.4 12.4 L 12.8 12.4 L 12.8 12 z M 1.6 8.4 L 1.6 8.8 L 2.0 8.8 L 2.0 8.4 z M 4.8 13.6 L 4.8 14.0 L 5.2 14.0 L 5.2 13.6 z M 1.6 12 L 1.6 12.4 L 2.0 12.4 L 2.0 12 z M 13.6 12.4 L 13.6 12.8 L 14.0 12.8 L 14.0 12.4 z M 9.6 3.2 L 9.6 3.6 L 10.0 3.6 L 10.0 3.2 z M 2 1.6 L 2 2.0 L 2.4 2.0 L 2.4 1.6 z M 6.4 1.6 L 6.4 2.0 L 6.8 2.0 L 6.8 1.6 z M 7.6 6 L 7.6 6.4 L 8.0 6.4 L 8.0 6 z M 2.8 8.8 L 2.8 9.2 L 3.2 9.2 L 3.2 8.8 z M 12 13.2 L 12 13.6 L 12.4 13.6 L 12.4 13.2 z M 3.2 2 L 3.2 2.4 L 3.6 2.4 L 3.6 2 z M 9.2 1.2 L 9.2 1.6 L 9.6 1.6 L 9.6 1.2 z M 3.2 5.6 L 3.2 6.0 L 3.6 6.0 L 3.6 5.6 z M 12.4 6.4 L 12.4 6.8 L 12.8 6.8 L 12.8 6.4 z M 9.2 4.8 L 9.2 5.2 L 9.6 5.2 L 9.6 4.8 z M 12.4 10 L 12.4 10.4 L 12.8 10.4 L 12.8 10 z M 9.2 8.4 L 9.2 8.8 L 9.6 8.8 L 9.6 8.4 z M 3.2 12.8 L 3.2 13.2 L 3.6 13.2 L 3.6 12.8 z M 4.8 4.4 L 4.8 4.8 L 5.2 4.8 L 5.2 4.4 z M 4.8 8 L 4.8 8.4 L 5.2 8.4 L 5.2 8 z M 1.6 6.4 L 1.6 6.8 L 2.0 6.8 L 2.0 6.4 z M 10.8 7.2 L 10.8 7.6 L 11.2 7.6 L 11.2 7.2 z M 1.6 10 L 1.6 10.4 L 2.0 10.4 L 2.0 10 z M 9.6 1.2 L 9.6 1.6 L 10.0 1.6 L 10.0 1.2 z M 10.4 8.8 L 10.4 9.2 L 10.8 9.2 L 10.8 8.8 z M 6 12.4 L 6 12.8 L 6.4 12.8 L 6.4 12.4 z M 10.4 12.4 L 10.4 12.8 L 10.8 12.8 L 10.8 12.4 z M 6.4 3.2 L 6.4 3.6 L 6.8 3.6 L 6.8 3.2 z M 7.6 4 L 7.6 4.4 L 8.0 4.4 L 8.0 4 z M 12 4 L 12 4.4 L 12.4 4.4 L 12.4 4 z M 4.4 2.4 L 4.4 2.8 L 4.8 2.8 L 4.8 2.4 z M 2.8 6.8 L 2.8 7.2 L 3.2 7.2 L 3.2 6.8 z M 7.6 11.2 L 7.6 11.6 L 8.0 11.6 L 8.0 11.2 z M 12 11.2 L 12 11.6 L 12.4 11.6 L 12.4 11.2 z M 4.4 9.6 L 4.4 10.0 L 4.8 10.0 L 4.8 9.6 z M 12.4 0.8 L 12.4 1.2 L 12.8 1.2 L 12.8 0.8 z M 4.4 13.2 L 4.4 13.6 L 4.8 13.6 L 4.8 13.2 z M 12.4 4.4 L 12.4 4.8 L 12.8 4.8 L 12.8 4.4 z M 3.2 7.2 L 3.2 7.6 L 3.6 7.6 L 3.6 7.2 z M 9.2 10 L 9.2 10.4 L 9.6 10.4 L 9.6 10 z M 8.8 11.6 L 8.8 12.0 L 9.2 12.0 L 9.2 11.6 z M 13.2 11.6 L 13.2 12.0 L 13.6 12.0 L 13.6 11.6 z M 4.8 2.4 L 4.8 2.8 L 5.2 2.8 L 5.2 2.4 z M 1.6 0.8 L 1.6 1.2 L 2.0 1.2 L 2.0 0.8 z M 4.8 6 L 4.8 6.4 L 5.2 6.4 L 5.2 6 z M 5.6 13.6 L 5.6 14.0 L 6.0 14.0 L 6.0 13.6 z M 10 13.6 L 10 14.0 L 10.4 14.0 L 10.4 13.6 z M 6 10.4 L 6 10.8 L 6.4 10.8 L 6.4 10.4 z M 10.4 10.4 L 10.4 10.8 L 10.8 10.8 L 10.8 10.4 z M 12 2 L 12 2.4 L 12.4 2.4 L 12.4 2 z M 2.8 4.8 L 2.8 5.2 L 3.2 5.2 L 3.2 4.8 z M 12 5.6 L 12 6.0 L 12.4 6.0 L 12.4 5.6 z M 4.4 4 L 4.4 4.4 L 4.8 4.4 L 4.8 4 z M 2.8 8.4 L 2.8 8.8 L 3.2 8.8 L 3.2 8.4 z M 4.4 7.6 L 4.4 8.0 L 4.8 8.0 L 4.8 7.6 z M 7.6 12.8 L 7.6 13.2 L 8.0 13.2 L 8.0 12.8 z M 3.2 1.6 L 3.2 2.0 L 3.6 2.0 L 3.6 1.6 z M 12.4 2.4 L 12.4 2.8 L 12.8 2.8 L 12.8 2.4 z M 3.2 8.8 L 3.2 9.2 L 3.6 9.2 L 3.6 8.8 z M 8.8 9.6 L 8.8 10.0 L 9.2 10.0 L 9.2 9.6 z M 13.2 9.6 L 13.2 10.0 L 13.6 10.0 L 13.6 9.6 z M 5.6 8 L 5.6 8.4 L 6.0 8.4 L 6.0 8 z M 5.6 11.6 L 5.6 12.0 L 6.0 12.0 L 6.0 11.6 z M 10 11.6 L 10 12.0 L 10.4 12.0 L 10.4 11.6 z M 1.6 2.4 L 1.6 2.8 L 2.0 2.8 L 2.0 2.4 z M 13.6 2.8 L 13.6 3.2 L 14.0 3.2 L 14.0 2.8 z M 2.4 13.6 L 2.4 14.0 L 2.8 14.0 L 2.8 13.6 z M 6 4.8 L 6 5.2 L 6.4 5.2 L 6.4 4.8 z M 10.4 4.8 L 10.4 5.2 L 10.8 5.2 L 10.8 4.8 z M 13.6 10 L 13.6 10.4 L 14.0 10.4 L 14.0 10 z M 7.2 3.2 L 7.2 3.6 L 7.6 3.6 L 7.6 3.2 z M 1.2 7.6 L 1.2 8.0 L 1.6 8.0 L 1.6 7.6 z M 6 8.4 L 6 8.8 L 6.4 8.8 L 6.4 8.4 z M 1.2 11.2 L 1.2 11.6 L 1.6 11.6 L 1.6 11.2 z M 6 12 L 6 12.4 L 6.4 12.4 L 6.4 12 z M 10.4 12 L 10.4 12.4 L 10.8 12.4 L 10.8 12 z M 7.6 7.2 L 7.6 7.6 L 8.0 7.6 L 8.0 7.2 z M 12 7.2 L 12 7.6 L 12.4 7.6 L 12.4 7.2 z M 4.4 9.2 L 4.4 9.6 L 4.8 9.6 L 4.8 9.2 z M 2.8 13.6 L 2.8 14.0 L 3.2 14.0 L 3.2 13.6 z M 3.2 3.2 L 3.2 3.6 L 3.6 3.6 L 3.6 3.2 z M 4 10.8 L 4 11.2 L 4.4 11.2 L 4.4 10.8 z M 9.2 2.4 L 9.2 2.8 L 9.6 2.8 L 9.6 2.4 z M 0.8 12.8 L 0.8 13.2 L 1.2 13.2 L 1.2 12.8 z M 8.8 7.6 L 8.8 8.0 L 9.2 8.0 L 9.2 7.6 z M 5.6 6 L 5.6 6.4 L 6.0 6.4 L 6.0 6 z M 10 6 L 10 6.4 L 10.4 6.4 L 10.4 6 z M 8.8 11.2 L 8.8 11.6 L 9.2 11.6 L 9.2 11.2 z M 13.6 0.8 L 13.6 1.2 L 14.0 1.2 L 14.0 0.8 z M 2.4 8 L 2.4 8.4 L 2.8 8.4 L 2.8 8 z M 10 13.2 L 10 13.6 L 10.4 13.6 L 10.4 13.2 z M 13.6 4.4 L 13.6 4.8 L 14.0 4.8 L 14.0 4.4 z M 10.4 2.8 L 10.4 3.2 L 10.8 3.2 L 10.8 2.8 z M 7.2 1.2 L 7.2 1.6 L 7.6 1.6 L 7.6 1.2 z M 6 10 L 6 10.4 L 6.4 10.4 L 6.4 10 z M 10.4 10 L 10.4 10.4 L 10.8 10.4 L 10.8 10 z M 7.2 8.4 L 7.2 8.8 L 7.6 8.8 L 7.6 8.4 z M 7.2 12 L 7.2 12.4 L 7.6 12.4 L 7.6 12 z M 2.8 0.8 L 2.8 1.2 L 3.2 1.2 L 3.2 0.8 z M 12 1.6 L 12 2.0 L 12.4 2.0 L 12.4 1.6 z M 2.8 4.4 L 2.8 4.8 L 3.2 4.8 L 3.2 4.4 z M 7.6 5.2 L 7.6 5.6 L 8.0 5.6 L 8.0 5.2 z M 12 5.2 L 12 5.6 L 12.4 5.6 L 12.4 5.2 z M 2.8 8 L 2.8 8.4 L 3.2 8.4 L 3.2 8 z M 11.6 10.4 L 11.6 10.8 L 12.0 10.8 L 12.0 10.4 z M 3.2 1.2 L 3.2 1.6 L 3.6 1.6 L 3.6 1.2 z M 8.4 8.8 L 8.4 9.2 L 8.8 9.2 L 8.8 8.8 z M 4 12.4 L 4 12.8 L 4.4 12.8 L 4.4 12.4 z M 8.4 12.4 L 8.4 12.8 L 8.8 12.8 L 8.8 12.4 z M 13.2 5.6 L 13.2 6.0 L 13.6 6.0 L 13.6 5.6 z M 8.8 9.2 L 8.8 9.6 L 9.2 9.6 L 9.2 9.2 z M 2.4 2.4 L 2.4 2.8 L 2.8 2.8 L 2.8 2.4 z M 10 7.6 L 10 8.0 L 10.4 8.0 L 10.4 7.6 z M 2.4 6 L 2.4 6.4 L 2.8 6.4 L 2.8 6 z M 10 11.2 L 10 11.6 L 10.4 11.6 L 10.4 11.2 z M 13.6 2.4 L 13.6 2.8 L 14.0 2.8 L 14.0 2.4 z M 2.4 9.6 L 2.4 10.0 L 2.8 10.0 L 2.8 9.6 z M 13.6 6 L 13.6 6.4 L 14.0 6.4 L 14.0 6 z M 6 4.4 L 6 4.8 L 6.4 4.8 L 6.4 4.4 z M 1.2 7.2 L 1.2 7.6 L 1.6 7.6 L 1.6 7.2 z M 6 8 L 6 8.4 L 6.4 8.4 L 6.4 8 z M 10.4 8 L 10.4 8.4 L 10.8 8.4 L 10.8 8 z M 7.2 6.4 L 7.2 6.8 L 7.6 6.8 L 7.6 6.4 z M 7.2 10 L 7.2 10.4 L 7.6 10.4 L 7.6 10 z M 6.8 11.6 L 6.8 12.0 L 7.2 12.0 L 7.2 11.6 z M 4.4 1.6 L 4.4 2.0 L 4.8 2.0 L 4.8 1.6 z M 8 13.6 L 8 14.0 L 8.4 14.0 L 8.4 13.6 z M 4 3.2 L 4 3.6 L 4.4 3.6 L 4.4 3.2 z M 11.6 8.4 L 11.6 8.8 L 12.0 8.8 L 12.0 8.4 z M 4 6.8 L 4 7.2 L 4.4 7.2 L 4.4 6.8 z M 8.4 6.8 L 8.4 7.2 L 8.8 7.2 L 8.8 6.8 z M 12.8 6.8 L 12.8 7.2 L 13.2 7.2 L 13.2 6.8 z M 5.2 5.2 L 5.2 5.6 L 5.6 5.6 L 5.6 5.2 z M 11.6 12 L 11.6 12.4 L 12.0 12.4 L 12.0 12 z M 0.8 12.4 L 0.8 12.8 L 1.2 12.8 L 1.2 12.4 z M 8.8 3.6 L 8.8 4.0 L 9.2 4.0 L 9.2 3.6 z M 10 5.6 L 10 6.0 L 10.4 6.0 L 10.4 5.6 z M 2.4 4 L 2.4 4.4 L 2.8 4.4 L 2.8 4 z M 5.6 9.2 L 5.6 9.6 L 6.0 9.6 L 6.0 9.2 z M 10 9.2 L 10 9.6 L 10.4 9.6 L 10.4 9.2 z M 2.4 11.2 L 2.4 11.6 L 2.8 11.6 L 2.8 11.2 z M 6 2.4 L 6 2.8 L 6.4 2.8 L 6.4 2.4 z M 10.4 2.4 L 10.4 2.8 L 10.8 2.8 L 10.8 2.4 z M 7.2 0.8 L 7.2 1.2 L 7.6 1.2 L 7.6 0.8 z M 1.2 5.2 L 1.2 5.6 L 1.6 5.6 L 1.6 5.2 z M 7.2 4.4 L 7.2 4.8 L 7.6 4.8 L 7.6 4.4 z M 1.2 8.8 L 1.2 9.2 L 1.6 9.2 L 1.6 8.8 z M 6.8 13.2 L 6.8 13.6 L 7.2 13.6 L 7.2 13.2 z M 8 11.6 L 8 12.0 L 8.4 12.0 L 8.4 11.6 z M 11.6 6.4 L 11.6 6.8 L 12.0 6.8 L 12.0 6.4 z M 12.8 4.8 L 12.8 5.2 L 13.2 5.2 L 13.2 4.8 z M 0.8 3.2 L 0.8 3.6 L 1.2 3.6 L 1.2 3.2 z M 8.4 8.4 L 8.4 8.8 L 8.8 8.8 L 8.8 8.4 z M 12.8 8.4 L 12.8 8.8 L 13.2 8.8 L 13.2 8.4 z M 11.6 13.6 L 11.6 14.0 L 12.0 14.0 L 12.0 13.6 z M 0.8 6.8 L 0.8 7.2 L 1.2 7.2 L 1.2 6.8 z M 4 12 L 4 12.4 L 4.4 12.4 L 4.4 12 z M 8.4 12 L 8.4 12.4 L 8.8 12.4 L 8.8 12 z M 0.8 10.4 L 0.8 10.8 L 1.2 10.8 L 1.2 10.4 z M 8.8 1.6 L 8.8 2.0 L 9.2 2.0 L 9.2 1.6 z M 13.2 5.2 L 13.2 5.6 L 13.6 5.6 L 13.6 5.2 z M 5.6 3.6 L 5.6 4.0 L 6.0 4.0 L 6.0 3.6 z M 13.2 8.8 L 13.2 9.2 L 13.6 9.2 L 13.6 8.8 z M 2.4 2 L 2.4 2.4 L 2.8 2.4 L 2.8 2 z M 10 7.2 L 10 7.6 L 10.4 7.6 L 10.4 7.2 z M 2.4 5.6 L 2.4 6.0 L 2.8 6.0 L 2.8 5.6 z M 9.6 12.4 L 9.6 12.8 L 10.0 12.8 L 10.0 12.4 z M 1.2 3.2 L 1.2 3.6 L 1.6 3.6 L 1.6 3.2 z M 7.2 2.4 L 7.2 2.8 L 7.6 2.8 L 7.6 2.4 z M 11.2 4 L 11.2 4.4 L 11.6 4.4 L 11.6 4 z M 11.2 7.6 L 11.2 8.0 L 11.6 8.0 L 11.6 7.6 z M 3.6 6 L 3.6 6.4 L 4.0 6.4 L 4.0 6 z M 8 6 L 8 6.4 L 8.4 6.4 L 8.4 6 z M 6.8 11.2 L 6.8 11.6 L 7.2 11.6 L 7.2 11.2 z M 11.2 11.2 L 11.2 11.6 L 11.6 11.6 L 11.6 11.2 z M 11.6 0.8 L 11.6 1.2 L 12.0 1.2 L 12.0 0.8 z M 11.6 4.4 L 11.6 4.8 L 12.0 4.8 L 12.0 4.4 z M 4 2.8 L 4 3.2 L 4.4 3.2 L 4.4 2.8 z M 8.4 2.8 L 8.4 3.2 L 8.8 3.2 L 8.8 2.8 z M 11.6 8 L 11.6 8.4 L 12.0 8.4 L 12.0 8 z M 0.8 1.2 L 0.8 1.6 L 1.2 1.6 L 1.2 1.2 z M 4 6.4 L 4 6.8 L 4.4 6.8 L 4.4 6.4 z M 12.8 6.4 L 12.8 6.8 L 13.2 6.8 L 13.2 6.4 z M 0.8 4.8 L 0.8 5.2 L 1.2 5.2 L 1.2 4.8 z M 8.4 10 L 8.4 10.4 L 8.8 10.4 L 8.8 10 z M 12.8 10 L 12.8 10.4 L 13.2 10.4 L 13.2 10 z M 0.8 8.4 L 0.8 8.8 L 1.2 8.8 L 1.2 8.4 z M 0.8 12 L 0.8 12.4 L 1.2 12.4 L 1.2 12 z M 8.8 3.2 L 8.8 3.6 L 9.2 3.6 L 9.2 3.2 z M 13.2 3.2 L 13.2 3.6 L 13.6 3.6 L 13.6 3.2 z M 5.6 1.6 L 5.6 2.0 L 6.0 2.0 L 6.0 1.6 z M 2.4 7.2 L 2.4 7.6 L 2.8 7.6 L 2.8 7.2 z M 9.6 10.4 L 9.6 10.8 L 10.0 10.8 L 10.0 10.4 z M 2 8.8 L 2 9.2 L 2.4 9.2 L 2.4 8.8 z M 6.4 8.8 L 6.4 9.2 L 6.8 9.2 L 6.8 8.8 z M 2 12.4 L 2 12.8 L 2.4 12.8 L 2.4 12.4 z M 6.4 12.4 L 6.4 12.8 L 6.8 12.8 L 6.8 12.4 z M 11.2 2 L 11.2 2.4 L 11.6 2.4 L 11.6 2 z" id="qr-path" fill="#000000" fill-opacity="1" fill-rule="nonzero" stroke="none"/></svg>